<?xml version="1.0" encoding="utf-8"?>
<!-- Generator: Adobe Illustrator 22.1.0, SVG Export Plug-In . SVG Version: 6.00 Build 0)  -->
<svg version="1.1" id="Layer_1" xmlns="http://www.w3.org/2000/svg" xmlns:xlink="http://www.w3.org/1999/xlink" x="0px" y="0px"
	 viewBox="0 0 400 200" style="enable-background:new 0 0 400 200;" xml:space="preserve">
<style type="text/css">
	.st0{fill:#010101;}
</style>
<path class="st0" d="M230.5,105h4.2c0,4.6,0.8,10,1.9,14c1,3.7,3.8,7.2,6.1,9.8c4.4,5.1,12.2,8,20.6,8c6.1,0,11.7-2.1,15.5-5.1
	c4-3.3,6.5-8,6.5-13.6c0-4.7-2-9-4.6-11.7c-2.7-2.7-8.6-6.7-15.5-9.3l-9.8-3.8c-8.3-3.2-15.6-8.1-19.2-12.7
	c-3.7-4.6-6.1-11.3-6.1-17.8c0-9.3,3.8-17,10.3-22.5c6.5-5.5,16.9-8.4,29.1-8.4c13.9,0,23.5,2.3,32.8,8.2v24.2h-3.8
	c0-1.9-0.5-3.8-0.5-4.7c0-1.4-0.4-2.8-0.4-3.8c0-0.9-0.9-1.9-0.9-2.8c-0.9-2.3-2.4-5.4-4.2-8c-4.5-6.6-12.2-10.3-20.7-10.3
	c-5.6,0-11,1.8-14.5,4.6c-3.8,3-5.6,8-5.6,13.1c0,4.2,1.4,8.2,3.8,10.8c2.5,2.8,7.9,5.8,14.5,8.5l9,3.7c9.2,3.8,16.9,8.7,21.1,13.1
	c4.5,4.7,7,11.2,7,18.7c0,9.4-3.8,17.9-11.2,23.4c-7.4,5.5-17.8,8.9-30.5,8.9c-6.1,0-14.4-1.2-23.4-2.8c-3.2-0.6-7.5-1.6-11.3-3.2
	L230.5,105z M320.4,105h4.2c0,4.6,0.8,10,1.9,14c1,3.7,3.8,7.2,6.1,9.8c4.4,5.1,12.2,8,20.6,8c6.1,0,11.7-2.1,15.5-5.1
	c4-3.3,6.5-8,6.5-13.6c0-4.7-2-9-4.6-11.7c-2.7-2.7-8.6-6.7-15.5-9.3l-9.8-3.8c-8.3-3.2-15.6-8.1-19.2-12.7
	c-3.7-4.6-6.1-11.3-6.1-17.8c0-9.3,3.8-17,10.3-22.5c6.5-5.5,16.9-8.4,29.1-8.4c13.9,0,23.5,2.3,32.8,8.2v24.2h-3.8
	c0-1.9-0.5-3.8-0.5-4.7c0-1.4-0.4-2.8-0.4-3.8c0-0.9-0.9-1.9-0.9-2.8c-0.9-2.3-2.4-5.4-4.2-8c-4.5-6.6-12.2-10.3-20.7-10.3
	c-5.6,0-11,1.8-14.5,4.6c-3.8,3-5.6,8-5.6,13.1c0,4.2,1.4,8.2,3.8,10.8c2.5,2.8,7.9,5.8,14.5,8.5l9,3.7c9.2,3.8,16.9,8.7,21.1,13.1
	c4.5,4.7,7,11.2,7,18.7c0,9.4-3.8,17.9-11.2,23.4c-7.4,5.5-17.8,8.9-30.5,8.9c-6.1,0-14.4-1.2-23.4-2.8c-3.2-0.6-7.5-1.6-11.3-3.2
	L320.4,105z M163,30.9c14,0,26.2,4.2,35.1,11.7C209.9,52,216,67,216,86.7c0,7.5-1.4,14.5-3.3,21.1c-2.4,6.5-6.1,12.7-10.3,16.9
	c-9.3,9.8-22.9,15-40.8,15c-16.4,0-29.5-4.7-38.4-14c-9.4-9.4-14-23.4-14-40.8c0-16.9,4.6-30,14-39.3
	C132.6,36.1,146.2,30.9,163,30.9L163,30.9z M163.1,33.7c-9.4,0-16.9,5.1-21.5,14.5c-3.8,8-6.2,20.7-6.2,36.6
	c0,17.4,2.4,30.4,6.2,38.3c4.2,9,11.2,13.6,20.1,13.6c18.8,0,28.1-17.2,28.1-51.1c0-17.8-2.3-30.9-6.5-38.9c-1.9-3.8-5.2-7-9-9.4
	c-3.7-2.3-8-3.7-11.7-3.7L163.1,33.7L163.1,33.7z M62.8,84.9c10.3,0,19.2,2.3,24.8,7c5.6,4.3,8.5,10.8,8.5,18.7
	c0,4.7-1.4,9.4-3.3,13.1c-2.4,3.8-6.1,7.5-10.3,9.4c-4,1.7-8.3,2.8-12.7,3.3c-4.7,0.9-11.7,1.4-20.1,1.4H4.2V135h11.2V35.7H4.2v-2.8
	h44.5c6.5,0,12.7,0.4,17.3,0.9c8,0.9,14.5,3.7,19.2,8c4.7,4.2,7,10.3,7,17.4c0,9.3-4.2,16.4-12.2,20.6c-3.8,1.9-9.8,3.8-17.8,4.2
	L62.8,84.9z M39.8,135h7.1c4.6,0,8.4-0.4,11.2-1c2.9-0.9,5.6-2.7,7.5-5.1c3.3-4.2,5.2-10.3,5.2-17.8c0-8-1.9-14.6-5.2-18.3
	c-1.9-1.9-4.2-3.8-7-4.6c-2.9-1-7.5-1.9-12.3-1.9h-6.5L39.8,135z M39.8,83.5h6.5c6.6,0,12.3-1.9,15.5-5.6C65.1,74.1,67,68,67,59.5
	c0-6.5-1.4-12.6-3.8-16.4c-1.4-2.9-3.8-4.7-6.1-5.6c-2.9-1-7.1-1.9-11.7-1.9h-5.6V83.5z M5.7,170.1v-13.3h1.6v5.5h7v-5.5h1.6v13.3
	h-1.6v-6.2h-7v6.2H5.7z M63.6,156.8h1.6v7.7c0,1.3-0.2,2.4-0.4,3.1c-0.3,0.8-0.9,1.4-1.6,1.9c-0.8,0.5-1.8,0.8-3.1,0.8
	c-1.2,0-2.3-0.2-3-0.6c-0.7-0.4-1.3-1.1-1.6-1.9c-0.2-0.4-0.3-0.9-0.4-1.4c-0.1-0.6-0.1-1.3-0.1-1.9v-7.7h1.6v7.7
	c0,1.2,0.1,2.1,0.3,2.5c0.2,0.6,0.6,1,1.2,1.3c0.6,0.3,1.2,0.4,1.9,0.4c1.3,0,2.3-0.3,2.8-0.8c0.6-0.6,0.9-1.8,0.9-3.4L63.6,156.8z
	 M110.3,164.9v-1.5h5.6v4.9c-0.9,0.7-1.8,1.2-2.7,1.5s-1.9,0.5-2.8,0.5c-1.2,0-2.4-0.3-3.5-0.8c-1-0.5-1.9-1.4-2.4-2.4
	c-0.6-1.1-0.8-2.3-0.8-3.5c0-1.3,0.3-2.5,0.8-3.6c0.6-1.1,1.3-1.9,2.3-2.5c1-0.6,2.2-0.8,3.5-0.8c0.9,0,1.8,0.2,2.6,0.4
	c0.8,0.3,1.4,0.8,1.8,1.3c0.4,0.6,0.8,1.3,1,2.2l-1.5,0.4c-0.2-0.6-0.4-1.2-0.7-1.5c-0.3-0.3-0.7-0.7-1.3-0.9
	c-0.6-0.3-1.2-0.4-1.8-0.4c-0.8,0-1.5,0.1-2,0.3c-0.6,0.2-1,0.6-1.4,1c-0.4,0.4-0.6,0.8-0.8,1.3c-0.3,0.8-0.5,1.7-0.5,2.6
	c0,1.2,0.2,2.2,0.6,2.9c0.4,0.8,1,1.4,1.8,1.8c0.8,0.3,1.6,0.6,2.5,0.6c0.7,0,1.5-0.2,2.2-0.4c0.7-0.3,1.3-0.7,1.7-1v-2.5
	L110.3,164.9z M153.8,163.7c0-2.2,0.6-3.9,1.7-5.1c1.2-1.2,2.7-1.9,4.6-1.9c1.2,0,2.3,0.3,3.3,0.9c0.9,0.6,1.7,1.4,2.2,2.4
	c0.6,1,0.8,2.2,0.8,3.5c0,1.3-0.3,2.5-0.8,3.5c-0.6,1-1.3,1.9-2.3,2.4c-1,0.6-2.1,0.8-3.2,0.8c-1.2,0-2.3-0.3-3.3-0.9
	c-1-0.6-1.8-1.4-2.2-2.4C154.1,166,153.8,164.9,153.8,163.7L153.8,163.7z M155.6,163.7c0,1.5,0.4,2.8,1.3,3.7
	c0.8,0.9,1.9,1.4,3.2,1.4c1.3,0,2.4-0.4,3.3-1.3c0.9-0.9,1.3-2.2,1.3-3.9c0-1-0.2-2-0.6-2.8c-0.3-0.8-0.9-1.4-1.6-1.9
	c-0.7-0.4-1.5-0.7-2.4-0.7c-1.2,0-2.3,0.4-3.2,1.3C156.1,160.4,155.6,161.8,155.6,163.7L155.6,163.7z M234.6,170.1v-13.3h4.9
	c1,0,1.8,0.2,2.4,0.4c0.6,0.3,1.1,0.7,1.4,1.3c0.3,0.6,0.6,1.2,0.6,1.8c0,0.6-0.2,1.2-0.4,1.6c-0.4,0.5-0.9,1-1.4,1.3
	c0.8,0.2,1.4,0.6,1.9,1.2c0.4,0.6,0.7,1.3,0.7,2c0,0.6-0.2,1.2-0.4,1.7c-0.2,0.5-0.5,0.9-0.9,1.3c-0.4,0.3-0.9,0.5-1.5,0.6
	s-1.3,0.2-2.2,0.2L234.6,170.1z M236.3,162.5h2.9c0.8,0,1.4-0.1,1.7-0.1c0.4-0.1,0.8-0.4,1-0.7c0.1-0.2,0.2-0.3,0.3-0.5
	c0.1-0.2,0.1-0.4,0.1-0.7c0-0.4-0.1-0.8-0.3-1.2c-0.2-0.3-0.6-0.6-0.9-0.7c-0.4-0.1-1.1-0.2-2-0.2h-2.7L236.3,162.5z M236.3,168.5
	h3.3c0.6,0,1-0.1,1.2-0.1c0.4-0.1,0.8-0.2,1-0.3c0.3-0.2,0.6-0.4,0.7-0.7c0.2-0.3,0.3-0.7,0.3-1.2c0-0.4-0.2-0.9-0.4-1.2
	c-0.2-0.3-0.7-0.7-1.1-0.8c-0.4-0.2-1.2-0.3-1.9-0.3h-3.1L236.3,168.5L236.3,168.5z M284.2,163.7c0-2.2,0.6-3.9,1.7-5.1
	c1.2-1.2,2.7-1.9,4.6-1.9c1.2,0,2.3,0.3,3.3,0.9c0.9,0.6,1.7,1.4,2.2,2.4c0.6,1,0.8,2.2,0.8,3.5c0,1.3-0.3,2.5-0.8,3.5
	c-0.6,1-1.3,1.9-2.3,2.4c-1,0.6-2.1,0.8-3.2,0.8c-1.2,0-2.3-0.3-3.3-0.9c-1-0.6-1.8-1.4-2.2-2.4C284.5,166,284.3,164.9,284.2,163.7
	L284.2,163.7z M286,163.7c0,1.5,0.4,2.8,1.3,3.7s1.9,1.4,3.2,1.4c1.3,0,2.4-0.4,3.3-1.3c0.9-0.9,1.3-2.2,1.3-3.9c0-1-0.2-2-0.6-2.8
	c-0.3-0.8-0.9-1.4-1.6-1.9s-1.5-0.7-2.4-0.7c-1.2,0-2.3,0.4-3.2,1.3C286.4,160.4,286,161.8,286,163.7L286,163.7z M336.2,165.9
	l1.7-0.1c0.1,0.6,0.3,1.2,0.5,1.5c0.3,0.4,0.8,0.8,1.4,1c0.3,0.1,0.6,0.3,0.9,0.3c0.3,0.1,0.7,0.1,1,0.1c0.7,0,1.3-0.1,1.8-0.3
	c0.5-0.2,0.9-0.4,1.2-0.8c0.2-0.3,0.4-0.8,0.4-1.2s-0.1-0.8-0.3-1c-0.2-0.3-0.7-0.6-1.2-0.8c-0.8-0.2-1.5-0.4-2.3-0.6
	c-1.2-0.3-2.2-0.6-2.6-0.8c-0.6-0.3-1.1-0.8-1.4-1.2c-0.3-0.5-0.5-1.1-0.4-1.7c0-0.7,0.2-1.3,0.6-1.8c0.3-0.6,0.9-1,1.6-1.3
	c0.8-0.3,1.6-0.5,2.4-0.5c0.9,0,1.8,0.2,2.5,0.4c0.8,0.3,1.4,0.8,1.7,1.4c0.4,0.6,0.7,1.3,0.7,2l-1.7,0.2c-0.1-0.8-0.4-1.5-0.9-1.9
	c-0.5-0.4-1.3-0.7-2.3-0.7s-1.8,0.2-2.3,0.6c-0.4,0.4-0.7,0.9-0.7,1.4c0,0.4,0.2,0.9,0.5,1.2c0.3,0.3,1.2,0.6,2.6,0.9
	c1.4,0.3,2.4,0.6,2.9,0.8c0.8,0.3,1.4,0.8,1.7,1.4c0.1,0.2,0.3,0.6,0.4,0.8c0.1,0.3,0.2,0.7,0.2,1c0,0.7-0.2,1.4-0.6,2
	c-0.4,0.6-1,1.1-1.7,1.4c-0.8,0.3-1.7,0.5-2.6,0.5c-1.2,0-2.2-0.2-3-0.5c-0.8-0.3-1.4-0.9-1.9-1.5c-0.2-0.4-0.4-0.7-0.6-1.1
	C336.3,166.8,336.2,166.3,336.2,165.9L336.2,165.9z M386.3,165.9l1.7-0.1c0.1,0.6,0.3,1.2,0.5,1.5c0.3,0.4,0.8,0.8,1.4,1
	c0.3,0.1,0.6,0.3,0.9,0.3c0.3,0.1,0.7,0.1,1,0.1c0.7,0,1.3-0.1,1.8-0.3c0.5-0.2,0.9-0.4,1.2-0.8c0.2-0.3,0.4-0.8,0.4-1.2
	s-0.1-0.8-0.3-1c-0.2-0.3-0.7-0.6-1.2-0.8c-0.8-0.2-1.5-0.4-2.3-0.6c-1.2-0.3-2.2-0.6-2.6-0.8c-0.6-0.3-1.1-0.8-1.4-1.2
	c-0.3-0.5-0.5-1.1-0.4-1.7c0-0.7,0.2-1.3,0.6-1.8c0.3-0.6,0.9-1,1.6-1.3c0.8-0.3,1.6-0.5,2.4-0.5c0.9,0,1.8,0.2,2.5,0.4
	c0.8,0.3,1.4,0.8,1.7,1.4c0.4,0.6,0.7,1.3,0.7,2l-1.7,0.2c-0.1-0.8-0.4-1.5-0.9-1.9c-0.5-0.4-1.3-0.7-2.3-0.7s-1.8,0.2-2.3,0.6
	c-0.4,0.4-0.7,0.9-0.7,1.4c0,0.4,0.2,0.9,0.5,1.2c0.3,0.3,1.2,0.6,2.6,0.9c1.4,0.3,2.4,0.6,2.9,0.8c0.8,0.3,1.4,0.8,1.7,1.4
	c0.1,0.2,0.3,0.6,0.4,0.8c0.1,0.3,0.2,0.7,0.2,1c0,0.7-0.2,1.4-0.6,2c-0.4,0.6-1,1.1-1.7,1.4c-0.8,0.3-1.7,0.5-2.6,0.5
	c-1.2,0-2.2-0.2-3-0.5c-0.8-0.3-1.4-0.9-1.9-1.5c-0.2-0.4-0.4-0.7-0.6-1.1C386.3,166.8,386.3,166.3,386.3,165.9L386.3,165.9z"/>
</svg>
