<svg id="8995e950-4246-48f2-9d1f-f55b4677a459" data-name="svg2" xmlns="http://www.w3.org/2000/svg" xmlns:xlink="http://www.w3.org/1999/xlink" width="665.9393" height="272.0514" viewBox="0 0 665.9393 272.0514"><defs><clipPath id="072be5cd-4a60-47b4-84f4-fb001600319a" transform="translate(-12.2112 -24.0968)"><rect x="-217" y="-237" width="1122.52" height="793.7067" fill="none"/></clipPath></defs><title>OliviaBurtonLogo</title><g id="1feb6879-4aac-4f9f-92a7-1606897cf48e" data-name="g10"><g id="914c5d5c-692f-4e61-b712-1e3f5fc83a7c" data-name="g12"><path id="dad87021-6645-4922-b7e6-d1d1d66855a9" data-name="path14" d="M226.0888,269.3h2.752v23.6254H243.07v-5.584h2.6733v8.1773H226.0888Z" transform="translate(-12.2112 -24.0968)" fill="#1d1d1b"/></g><g id="35d27eca-2b5f-427b-a723-9c97131cd5cb" data-name="g16"><g clip-path="url(#072be5cd-4a60-47b4-84f4-fb001600319a)"><g id="5462b794-7a30-4060-b549-94a50acb724f" data-name="g18"><g id="8c683741-7caa-4129-a261-76f3d8bd859b" data-name="g24"><path id="b8685225-f68a-4d3e-a274-1b6dc26680c4" data-name="path26" d="M262.1938,282.4283a10.66,10.66,0,1,0,10.6534-11.0467,10.7932,10.7932,0,0,0-10.6534,11.0467m24.4107,0A13.758,13.758,0,1,1,272.8472,268.67a13.7417,13.7417,0,0,1,13.7573,13.7587" transform="translate(-12.2112 -24.0968)" fill="#1d1d1b"/></g><g id="c522df32-3e0c-46df-b684-59fae42f3aa6" data-name="g28"><path id="74daa42c-19a4-4742-bb5c-e2e73849e93a" data-name="path30" d="M302.47,268.9461c1.1786,1.256,16.1173,18.1214,17.492,19.6934V269.3h2.7533V295.99c-1.4547-1.6893-16.0013-18.1213-17.4933-19.7733v19.3013H302.47Z" transform="translate(-12.2112 -24.0968)" fill="#1d1d1b"/></g><g id="ed90fadc-ba02-4f5c-b34f-057f6b914c8b" data-name="g32"><path id="c89764bc-ec7e-4aaa-81b6-b8f414770f03" data-name="path34" d="M349.8561,292.8063a10.4005,10.4005,0,0,0,0-20.7947h-7.1947v20.7947Zm.0387-23.5067a13.1094,13.1094,0,1,1,0,26.2187h-9.9827V269.3Z" transform="translate(-12.2112 -24.0968)" fill="#1d1d1b"/></g><g id="fbd03a6f-be33-497d-86df-e454f592e944" data-name="g36"><path id="371f39dd-b869-4310-a754-068d8b4c2a7e" data-name="path38" d="M379.8884,282.4283a10.6616,10.6616,0,1,0,10.6546-11.0467,10.7942,10.7942,0,0,0-10.6546,11.0467m24.4133,0A13.7587,13.7587,0,1,1,390.543,268.67a13.742,13.742,0,0,1,13.7587,13.7587" transform="translate(-12.2112 -24.0968)" fill="#1d1d1b"/></g><g id="5990b25f-c0e7-43f3-b8df-8e8d174d09a5" data-name="g40"><path id="8e471f8e-b96c-4f72-8baa-46453768b4af" data-name="path42" d="M420.1646,268.9461c1.1787,1.256,16.1174,18.1214,17.492,19.6934V269.3H440.41V295.99c-1.4547-1.6893-16.0014-18.1213-17.4947-19.7733v19.3013h-2.7507Z" transform="translate(-12.2112 -24.0968)" fill="#1d1d1b"/></g><g id="49a0ca2c-2a82-4256-bca3-14457f65ad5b" data-name="g44"><path id="eb8e962f-5cf7-481f-a61d-4f52caea6ca3" data-name="path46" d="M38.1005,222.7318c-9.9573,0-17.628-8.408-17.628-19.1787,0-10.8427,7.6707-19.2507,17.628-19.2507s17.628,8.408,17.628,19.2507c0,10.7707-7.6707,19.1787-17.628,19.1787m0-45.0654c-15.0467,0-25.8893,10.7654-25.8893,25.8867s10.7693,25.816,25.8893,25.816c15.0467,0,25.888-10.7667,25.888-25.816,0-15.044-10.8413-25.8867-25.888-25.8867" transform="translate(-12.2112 -24.0968)" fill="#1d1d1b"/></g><g id="cf2649e5-48bb-4539-bfef-852b3f0f2af7" data-name="g48"><path id="a98780c0-16b6-4d96-97ab-04a2314fa4c4" data-name="path50" d="M107.159,208.6664l.0974,14.444-13.2494.0973L93.91,191.2611l5.512-.0974-.0987-5.4493-17.5986.0987.0973,5.448,5.568-.0974L87.487,223.11l-5.7626.0973.0973,5.4494h31.4507l-.0987-20.088Z" transform="translate(-12.2112 -24.0968)" fill="#1d1d1b"/></g><g id="8d804b16-94ae-493e-b810-1d4eef01bca8" data-name="g52"><path id="046b43f6-e2a8-4718-8582-5c28e6cc98f8" data-name="path54" d="M147.7137,185.7145l-15.8373.0974.0973,5.4493,4.5614-.0987.0973,31.948-4.756.0974.0973,5.4493h15.8374l-.0974-5.5467-4.5613.0974-.0973-31.9467,4.756-.0987Z" transform="translate(-12.2112 -24.0968)" fill="#1d1d1b"/></g><g id="18ef077d-d022-45ef-999a-7294d6533531" data-name="g56"><path id="49a9172e-7b02-40fc-b455-cab82a107913" data-name="path58" d="M177.2241,191.1631h1.2293l-1.2173.0333Zm10.9293,28.604-.0386.1026-4.6574-12.2773Zm10.564-28.604h.0374l-2.7107,7.3106Zm-5.0333-5.3507.0987,5.448,3.6066-.0973h1.2587l-5.9387,16.3146-4.5426,12.252-8.0774-21.016L177.26,191.26l5.036-.0973-.0987-5.448-16.9706.0973.0986,5.448,5.196-.0627,14.3827,37.9h6.052l14.032-37.8373,5.3227-.0973-.0987-5.448Z" transform="translate(-12.2112 -24.0968)" fill="#1d1d1b"/></g><g id="76bb4e6a-07fd-402f-b6ff-b4ed8ff7d31e" data-name="g60"><path id="9925629d-7808-443d-8ebc-cedfc50cb685" data-name="path62" d="M243.4308,185.7145l-15.8387.0974.0987,5.4493,4.5613-.0987.0973,31.948-4.7573.0974.0987,5.4493h15.8373l-.0973-5.5467-4.5614.0974-.0973-31.9467,4.756-.0987Z" transform="translate(-12.2112 -24.0968)" fill="#1d1d1b"/></g><g id="a0597c39-cd64-4366-ae56-6dc5862b3a58" data-name="g64"><path id="af779810-e7b1-4141-8a93-2de029b88642" data-name="path66" d="M293.5992,223.208h-1.1907l1.1813-.0293Zm-21.8454,0,.7987-2.3173-.7667,2.3173Zm5.2254-32.6133-2.936,8.1813,2.9013-8.1813Zm11.7733,0h1.1907l-1.1814.0307Zm-6.0947.088.3987-.0587,4.432,13.7094,1.296,4.108-9.1467.0986h-2.8693Zm6.1574,17.8573h-2.688l2.68-.028Zm-12.1507,0,2.96-8.9733-2.9267,8.9733Zm23.7013,14.636-8.708-24.3586-2.8706-8.1254,5.1-.0973-.0974-4.88-21.944.0973.0987,4.88,3.708-.0973h1.2227L265.27,223.1107l-5.26.0973.0987,5.448,16.9693-.0973-.0986-5.448-3.8507.0973h-1.2707l3.2334-9.596,15.2666-.068,2.4827,7.3267.7253,2.24-5.352.0973.0987,5.448h16.844l-.0973-5.5453Z" transform="translate(-12.2112 -24.0968)" fill="#1d1d1b"/></g><g id="447693c0-a32f-4c85-9889-e41d1ec1bdac" data-name="g68"><path id="9987f83e-310d-449a-b765-047bbc497ce0" data-name="path70" d="M378.3828,222.29h-5.9V205.6207h6.0493c8.5547,0,10.6973,4.056,10.6973,8.1853,0,5.4574-3.0266,8.484-10.8466,8.484m-5.9-37.5453h4.7253c6.636,0,9.5867,2.212,9.5867,7.156,0,3.9093-1.9214,7.4507-8.704,7.4507h-5.608Zm15.7866,17.2613c3.9107-1.916,6.196-5.7533,6.196-10.62,0-6.492-4.2066-12.9093-15.3453-12.9093H358.84v6.268h6.1227V222.29H358.84v6.268h19.62c15.264,0,18.5133-8.48,18.5133-14.2346a12.4038,12.4038,0,0,0-8.704-12.3174" transform="translate(-12.2112 -24.0968)" fill="#1d1d1b"/></g><g id="a3837c54-d7c3-4ee5-889c-e909cfcb8d36" data-name="g72"><path id="57513bb4-80d4-44e7-9bff-7d99e220f59f" data-name="path74" d="M456.235,185.7145l-16.8466.0974.1,5.4493,4.8746-.0987V215.4c0,6.02-2.624,8.5906-8.78,8.5906-5.612,0-8.4586-2.7213-8.4586-8.088l-.1-24.6413,5.0706-.0987-.1-5.448-16.8466.0974.1,5.4493,5.2546-.0987v24.552c0,9.1747,5.1,13.6334,15.5867,13.6334,6.7947,0,14.8947-2.3547,14.8947-13.568l-.1-24.5187,5.4506-.0987Z" transform="translate(-12.2112 -24.0968)" fill="#1d1d1b"/></g><g id="369883c5-47d6-4b21-be50-41da239a25c9" data-name="g76"><path id="9dc76b1b-2b3c-4b5f-ab01-237f63866510" data-name="path78" d="M498.1365,207.656c.2147-.0533.3987-.1346.6107-.196-.208.0654-.392.1454-.6067.2054Zm-12.176-16.3946h7.7053c4.2174,0,6.636,2.076,6.636,5.6933,0,2.7987-1.248,6.136-7.2013,6.136l-7.14.0987Zm19.8227,31.904L499.5192,210.5l-1.34-2.7533c5.7226-1.4547,8.872-5.2853,8.872-10.792,0-7.248-4.8667-11.24-13.7-11.24l-19.8667.0973.1,5.4494,5.7547-.0987.0987,31.948-5.9534.0973.1,5.448,17.9147-.0973-.1-5.448-5.4387.0973-.1-14.5706,6.0187-.056,9.7826,20.0746h9.3574l-.1-5.5453Z" transform="translate(-12.2112 -24.0968)" fill="#1d1d1b"/></g><g id="d1156ec2-2653-4a07-8294-eaef26c265f0" data-name="g80"><path id="93a12d7b-cdde-41a4-a6a7-a7e0b7b68fdd" data-name="path82" d="M527.1048,185.8124l.1,16.3414,5.3853-.0974-.1-10.796,8.7147-.0973.1,31.9467-5.704.0986.1,5.448H553.43l-.0987-5.5466-5.508.0986-.1-31.948,8.7187-.0973.1,10.9907,5.3853-.0974-.1-16.3413Z" transform="translate(-12.2112 -24.0968)" fill="#1d1d1b"/></g><g id="7db9a258-56d9-480d-9ca6-bea49f12f76f" data-name="g84"><path id="5dbccd7f-0c56-469a-9586-59aceadf6eca" data-name="path86" d="M599.1,223.4866c-8.3853,0-14.9493-7.1467-14.9493-16.268,0-9.1587,6.564-16.3334,14.9493-16.3334,8.3813,0,14.9453,7.1747,14.9453,16.3334,0,9.1213-6.564,16.268-14.9453,16.268m0-38.468c-12.8627,0-22.2013,9.336-22.2013,22.2,0,13.0306,9.1306,22.1293,22.2013,22.1293,12.86,0,22.1933-9.3067,22.1933-22.1293,0-12.864-9.3333-22.2-22.1933-22.2" transform="translate(-12.2112 -24.0968)" fill="#1d1d1b"/></g><g id="ec862443-554e-42e7-adcd-0e69c86e56b7" data-name="g88"><path id="342ac310-48e4-49d6-8723-7db1a668cfd2" data-name="path90" d="M678.1505,191.1631l-.1-5.448-17.664.0973.1,5.448,5.884-.0973.0533,27.636.0467.08v.1733H666.34l-12.364-22.2067,4.8774,8.604-11.0187-19.7346-14.708.0973.1,5.448,6.008-.0973.1,31.9466-6.208.0987.1,5.448,17.664-.0973-.0987-5.4494-6.0693.0987-.0613-30.484-.0387-.068v-.172h.1227L658.1625,216.65l-5.532-9.8026,12.388,22.2506h6.8373l-.1-37.8373Z" transform="translate(-12.2112 -24.0968)" fill="#1d1d1b"/></g><g id="c7363b73-6d5e-4a40-9f5d-d221f15e95e0" data-name="g92"><path id="251754f5-f402-40f3-b723-5b0a7cd06c9b" data-name="path94" d="M331.4616,200.6039a4.9167,4.9167,0,1,0,4.916,4.916,4.9156,4.9156,0,0,0-4.916-4.916" transform="translate(-12.2112 -24.0968)" fill="#1d1d1b"/></g><g id="a418d9cf-5287-4535-baa4-b314965d6645" data-name="g96"><path id="55c68666-b23c-4218-838a-ab304dacd741" data-name="path98" d="M388.0158,83.47s8.8387,1.6133,11.024,2.904c.6294.3653-3.5653-4.248-8.704-6.8214-.864-.4306-1.0826-3.2613-1.0826-3.2613s-3.0267-9.4827-6.4494-10.2173c-3.008-2.524-9.7413-3.3027-12.2573-3.776a18.0853,18.0853,0,0,0-10.0013.584c-2.328.316-10.0294,3.4413-11.7534,3.7106-2.2546.3147-6.86-1.936-13.1133-3.6106-4.0093-1.0827-11.292-1.924-16.6613-2.512-10.9974-1.2294-20.372-.8987-21.368-1.0747-2.6427-.484-7.924-2.2827-10.6854-3.1267-2.7613-.8413-10.5626-4.556-10.5626-4.556l-56.0627-27.616a11.1306,11.1306,0,0,0-1.2027,1.1987c-.5986.6987.7227,2.128.7227,2.128l.48,1.4747s6.004,4.8013,7.6787,6.4826c1.6853,1.6827,33.136,20.6494,33.136,20.6494a13.5975,13.5975,0,0,0-1.9214.96c-.8826.5693,5.224,3.48,6.8414,5.4013-2.7587-.3573,6.1266,10.6853,6.7213,11.284a29.7987,29.7987,0,0,1,3.488,4.8013c.764,1.3827,1.74,9.1987,4.8013,13.4507a67.8768,67.8768,0,0,0,15.364,16.2093l1.2014,3.3574s18.7293,18.9666,19.2053,20.8866c.484,1.92-9.36-2.404-9.36-2.404s-.78-.584-3.964-1.076c-5.4013-.8453-6.7213,2.7654-6.7213,2.7654s4.0813-2.2854,7.5653-.484c-.844.484-1.0213,2.1133.7187,2.52,2.308.5533,3.3613-.2387,3.3613-.2387s1.0827,1.56,3.964,1.56c.956,0,4.1973.3613,4.1973.3613s3.684.7294,4.5627,1.076c1.3027.5214,4.56,4.1894,4.8013,4.9227.9614,2.9427,3.6,3.2427,3.8414,1.8053.2426-1.444.2426-.176,1.2026-.2413s1.1987,3.5987,1.1987,3.5987,1.3827-3.7787.2413-5.0427a5.6534,5.6534,0,0,0-2.4613-1.9787,3.7851,3.7851,0,0,0-1.86-.184l-.96-1.92s11.3467,4.6854,12.0067,2.6494c.6573-2.0467,3.48.9613,3.48.9613a2.7932,2.7932,0,0,0-2.88-3.1893,51.4741,51.4741,0,0,1-8.2854-1.5587s3.8907.284,3.9067-.78c.0227-1.248,2.9347.48,2.9347.48a4.3128,4.3128,0,0,0-4.6867-2.4,19.4921,19.4921,0,0,1-6.476,0l-5.7613-1.2027s-18.0107-19.1466-16.7507-19.4426c6.7573,3.2266,18.5093,3.752,20.3533,3.8373,1.7214.08,8.404-.2427,8.404-.2427s2.728,1.9827,2.3974,2.4054-7.444.2413-7.444.2413-2.2587-.6987-2.8814-.96a5.9229,5.9229,0,0,0-3.1226.2373,11.3993,11.3993,0,0,0-2.2774,1.4414s1.744-.284,3.1494-.4227a3.4447,3.4447,0,0,1,2.7306.6907,2.26,2.26,0,0,0,.4814,1.652c.5986.5986,3.6026,0,3.6026,0l6.96-.476,3.364,1.5586,4.62,1.8254s2.0094,1.2093,2.048,1.2093a4.9947,4.9947,0,0,0,3.384,1.8827c1.82.1226,1.8547-1.56,1.7134-1.436a4.2749,4.2749,0,0,1,3.1226,1.92c.1694-.88-.4533-2.82-1.928-3.1227a13.5568,13.5568,0,0,1-2.6386-.7187,9.6322,9.6322,0,0,1-4.7987-1.92c2.8813-.484,11.4933,2.0694,12.7253,1.436.6614-.484.776-.0573.96-1.436-.3333-.872,3.124.5067,3.6,1.92.268.3307-.3226-3.964-3.6-3.364a20.72,20.72,0,0,1-7.716-.5493c.3147-.32,1.444.6413,1.8974-.8573.2693-.5987,3.6573.4453,3.6573.4453a3.1274,3.1274,0,0,0-2.4053-1.916,5.1171,5.1171,0,0,0-2.876.476l-8.8814-.2387a8.1813,8.1813,0,0,1-5.6413-2.4c5.7533-1.5586,11.396-2.22,17.0387-5.7653C356.9505,108.87,368,100.2088,368,100.2088s4.364-3.9173,4.6054-4.156a35.6252,35.6252,0,0,1,5.436-2.9,49.8913,49.8913,0,0,1,6.372-2.6826c.2226-.04.772-.1494,2.012-.4014l1.96.2147a58.5426,58.5426,0,0,0,8.9106.4347c-9.6293-6.7174-10.6933-5.8774-10.7933-5.7427l.6453-1.068Z" transform="translate(-12.2112 -24.0968)" fill="#1d1d1b"/></g></g></g></g></g></svg>